<svg xmlns="http://www.w3.org/2000/svg" xmlns:xlink="http://www.w3.org/1999/xlink" xmlns:lucid="lucid" width="1702.19" height="490.01"><g transform="translate(-80 -140)" lucid:page-tab-id="0_0"><path d="M0 0h1870.87v1322.84H0z" fill="#fff"/><path d="M500 569h240v19.6H500z" fill="none"/><use xlink:href="#a" transform="matrix(1,0,0,1,500,568.9938867283612) translate(0 14.222222222222221)"/><use xlink:href="#b" transform="matrix(1,0,0,1,500,568.9938867283612) translate(91.30864197530863 14.222222222222221)"/><use xlink:href="#c" transform="matrix(1,0,0,1,500,568.9938867283612) translate(115.99999999999999 14.222222222222221)"/><path d="M500 366a6 6 0 0 1 6-6h188a6 6 0 0 1 6 6v76.25a6 6 0 0 1-6 6H506a6 6 0 0 1-6-6z" stroke="#3a414a" fill="#fff"/><use xlink:href="#d" transform="matrix(1,0,0,1,512,372) translate(35.431640625 28.720703125)"/><use xlink:href="#e" transform="matrix(1,0,0,1,512,372) translate(25.5341796875 52.001953125)"/><use xlink:href="#f" transform="matrix(1,0,0,1,512,372) translate(90.9833984375 52.001953125)"/><path d="M334.9 404.63H261v-1h73.9zm148.22 0h-58v-1h58z" stroke="#3a414a" stroke-width=".05" fill="#3a414a"/><path d="M261 404.63h-.5v-1h.5z" fill="#3a414a"/><path d="M261.04 404.65h-.56v-1.05h.56zm-.52-1v.95h.47v-.95z" stroke="#3a414a" stroke-width=".05" fill="#3a414a"/><path d="M497.88 404.13l-14.26 4.63v-9.27z" fill="#3a414a"/><path d="M499.5 404.13l-16.38 5.32V398.8zm-15.38 3.94l12.14-3.94-12.14-3.95z" stroke="#3a414a" stroke-width=".05" fill="#3a414a"/><use xlink:href="#g" transform="matrix(1,0,0,1,334.88888888888914,393.45996350065616) translate(0 14.222222222222223)"/><path d="M260 166a6 6 0 0 1 6-6h355.75a6 6 0 0 1 6 6v60.08a6 6 0 0 1-6 6H266a6 6 0 0 1-6-6z" stroke="#000" stroke-opacity="0" fill="#fff" fill-opacity="0"/><use xlink:href="#h" transform="matrix(1,0,0,1,265,165) translate(10.595052083333371 40.502604166666664)"/><use xlink:href="#i" transform="matrix(1,0,0,1,265,165) translate(50.99869791666671 40.502604166666664)"/><use xlink:href="#j" transform="matrix(1,0,0,1,265,165) translate(151.44140625000003 40.502604166666664)"/><use xlink:href="#k" transform="matrix(1,0,0,1,265,165) translate(237.67838541666669 40.502604166666664)"/><path d="M100 366a6 6 0 0 1 6-6h148a6 6 0 0 1 6 6v76.25a6 6 0 0 1-6 6H106a6 6 0 0 1-6-6z" stroke="#3a414a" fill="#fff"/><use xlink:href="#l" transform="matrix(1,0,0,1,112,372) translate(13.0244140625 28.720703125)"/><use xlink:href="#m" transform="matrix(1,0,0,1,112,372) translate(15.489683854166671 49.939194856770825)"/><path d="M500 256.05a6 6 0 0 1 6-6h188a6 6 0 0 1 6 6v76.25a6 6 0 0 1-6 6H506a6 6 0 0 1-6-6z" stroke="#3a414a" fill="#fff"/><use xlink:href="#n" transform="matrix(1,0,0,1,512,262.0502223904613) translate(35.431640625 28.720703125)"/><use xlink:href="#o" transform="matrix(1,0,0,1,512,262.0502223904613) translate(25.5341796875 52.001953125)"/><use xlink:href="#f" transform="matrix(1,0,0,1,512,262.0502223904613) translate(90.9833984375 52.001953125)"/><path d="M500 475.95a6 6 0 0 1 6-6h188a6 6 0 0 1 6 6v76.25a6 6 0 0 1-6 6H506a6 6 0 0 1-6-6z" stroke="#3a414a" fill="#fff"/><use xlink:href="#p" transform="matrix(1,0,0,1,512,481.9497776095387) translate(35.431640625 28.720703125)"/><use xlink:href="#e" transform="matrix(1,0,0,1,512,481.9497776095387) translate(25.5341796875 52.001953125)"/><use xlink:href="#f" transform="matrix(1,0,0,1,512,481.9497776095387) translate(90.9833984375 52.001953125)"/><path d="M334.9 404.63H261v-1h73.9zM483.1 294.68h-97.1l-.88.07-.84.2-.8.33-.73.45-.66.56-.55.64-.45.74-.33.8-.2.84-.07.88v93.26h-1v-93.3l.08-1 .24-1 .4-.94.52-.87.66-.77.78-.66.87-.54.94-.4.98-.23 1-.07h97.14z" stroke="#3a414a" stroke-width=".05" fill="#3a414a"/><path d="M261 404.63h-.5v-1h.5z" fill="#3a414a"/><path d="M261.04 404.65h-.56v-1.05h.56zm-.52-1v.95h.47v-.95z" stroke="#3a414a" stroke-width=".05" fill="#3a414a"/><path d="M497.88 294.18l-14.26 4.63v-9.26z" fill="#3a414a"/><path d="M499.5 294.18l-16.38 5.32v-10.65zm-15.38 3.94l12.14-3.94-12.14-3.95zM380.5 508.06l.07.88.2.84.33.8.45.73.56.66.67.56.73.46.8.33.84.2.88.08h97.1v1h-97.14l-1-.08-1-.24-.93-.4-.87-.52-.78-.67-.66-.77-.53-.87-.38-.94-.24-1-.08-1v-93.3h1zM261 404.63v-1h73.9v1z" stroke="#3a414a" stroke-width=".05" fill="#3a414a"/><path d="M261 404.63h-.5v-1h.5z" fill="#3a414a"/><path d="M261.04 404.65h-.56v-1.05h.56zm-.52-1v.95h.47v-.95z" stroke="#3a414a" stroke-width=".05" fill="#3a414a"/><path d="M497.88 514.08l-14.26 4.63v-9.26z" fill="#3a414a"/><path d="M499.5 514.08l-16.38 5.32v-10.65zm-15.38 3.94l12.14-3.94-12.14-3.95z" stroke="#3a414a" stroke-width=".05" fill="#3a414a"/><path d="M801.32 366a6 6 0 0 1 6-6h148a6 6 0 0 1 6 6v76.25a6 6 0 0 1-6 6h-148a6 6 0 0 1-6-6z" stroke="#3a414a" fill="#fff"/><use xlink:href="#l" transform="matrix(1,0,0,1,813.3169775153484,372) translate(13.0244140625 28.720703125)"/><use xlink:href="#m" transform="matrix(1,0,0,1,813.3169775153484,372) translate(15.489683854166671 49.939194856770825)"/><path d="M1121.32 366a6 6 0 0 1 6-6h208.08a6 6 0 0 1 6 6v77.45a6 6 0 0 1-6 6h-208.08a6 6 0 0 1-6-6z" stroke="#3a414a" fill="#fff"/><use xlink:href="#q" transform="matrix(1,0,0,1,1133.3169775153485,372) translate(32.3916015625 18.564453125)"/><use xlink:href="#r" transform="matrix(1,0,0,1,1133.3169775153485,372) translate(4.2080078125 41.845703125)"/><use xlink:href="#s" transform="matrix(1,0,0,1,1133.3169775153485,372) translate(133.3095703125 41.845703125)"/><use xlink:href="#t" transform="matrix(1,0,0,1,1133.3169775153485,372) translate(41.80078125 65.126953125)"/><path d="M1521.48 366a6 6 0 0 1 6-6h188a6 6 0 0 1 6 6v77.45a6 6 0 0 1-6 6h-188a6 6 0 0 1-6-6z" stroke="#3a414a" fill="#fff"/><use xlink:href="#u" transform="matrix(1,0,0,1,1533.4836941820145,372) translate(41.798828125 28.876953125)"/><use xlink:href="#o" transform="matrix(1,0,0,1,1533.4836941820145,372) translate(25.5341796875 52.158203125)"/><use xlink:href="#f" transform="matrix(1,0,0,1,1533.4836941820145,372) translate(90.9833984375 52.158203125)"/><path d="M1014.93 166a6 6 0 0 1 6-6h420.66a6 6 0 0 1 6 6v60.08a6 6 0 0 1-6 6h-420.67a6 6 0 0 1-6-6z" stroke="#000" stroke-opacity="0" fill="#fff" fill-opacity="0"/><use xlink:href="#v" transform="matrix(1,0,0,1,1019.9338677110736,165) translate(49.006510416666686 40.502604166666664)"/><use xlink:href="#w" transform="matrix(1,0,0,1,1019.9338677110736,165) translate(90.76432291666669 40.502604166666664)"/><use xlink:href="#j" transform="matrix(1,0,0,1,1019.9338677110736,165) translate(178.02994791666669 40.502604166666664)"/><use xlink:href="#k" transform="matrix(1,0,0,1,1019.9338677110736,165) translate(264.26692708333337 40.502604166666664)"/><path d="M1522.2 590.4h240V610h-240z" fill="none"/><use xlink:href="#x" transform="matrix(1,0,0,1,1522.1890718153747,590.4046419950818) translate(0 14.222222222222221)"/><use xlink:href="#b" transform="matrix(1,0,0,1,1522.1890718153747,590.4046419950818) translate(98.22222222222221 14.222222222222221)"/><use xlink:href="#c" transform="matrix(1,0,0,1,1522.1890718153747,590.4046419950818) translate(122.91358024691357 14.222222222222221)"/><path d="M1522.2 570.4h240V590h-240z" fill="none"/><use xlink:href="#a" transform="matrix(1,0,0,1,1522.1890718153747,570.4046419950818) translate(0 14.222222222222221)"/><use xlink:href="#b" transform="matrix(1,0,0,1,1522.1890718153747,570.4046419950818) translate(91.30864197530863 14.222222222222221)"/><use xlink:href="#y" transform="matrix(1,0,0,1,1522.1890718153747,570.4046419950818) translate(115.99999999999999 14.222222222222221)"/><path d="M1382.87 405.22h-40.47v-1h40.47zm121.73-110.96h-67.14l-.88.07-.84.2-.8.34-.73.45-.65.56-.56.65-.46.74-.33.8-.2.83-.06.88v94.28h-1v-94.31l.08-1 .24-1 .4-.94.52-.86.66-.77.78-.67.87-.53.93-.4 1-.23 1-.08h67.17z" stroke="#3a414a" stroke-width=".05" fill="#3a414a"/><path d="M1342.4 405.22h-.5v-1h.5z" fill="#3a414a"/><path d="M1342.44 405.25h-.57v-1.05h.57zm-.52-1v.95h.47v-.95z" stroke="#3a414a" stroke-width=".05" fill="#3a414a"/><path d="M1519.37 293.76l-14.27 4.64v-9.27z" fill="#3a414a"/><path d="M1520.98 293.76l-16.38 5.33v-10.66zm-15.38 3.95l12.15-3.94-12.15-3.94zM1431.94 509.67l.07.87.2.84.34.8.45.74.55.65.66.56.75.45.8.33.83.22.88.06h67.14v1h-67.18l-1-.07-1-.23-.93-.4-.88-.53-.77-.66-.67-.77-.53-.86-.4-.95-.23-1-.08-1v-94.3h1zm-89.54-104.45v-1h40.47v1z" stroke="#3a414a" stroke-width=".05" fill="#3a414a"/><path d="M1342.4 405.22h-.5v-1h.5z" fill="#3a414a"/><path d="M1342.44 405.25h-.57v-1.05h.57zm-.52-1v.95h.47v-.95z" stroke="#3a414a" stroke-width=".05" fill="#3a414a"/><path d="M1519.37 515.68l-14.27 4.64v-9.27z" fill="#3a414a"/><path d="M1520.98 515.68L1504.6 521v-10.64zm-15.38 3.95l12.15-3.95-12.15-3.94zM1382.87 405.22h-40.47v-1h40.47zm121.73 0H1480v-1h24.6z" stroke="#3a414a" stroke-width=".05" fill="#3a414a"/><path d="M1342.4 405.22h-.5v-1h.5z" fill="#3a414a"/><path d="M1342.44 405.25h-.57v-1.05h.57zm-.52-1v.95h.47v-.95z" stroke="#3a414a" stroke-width=".05" fill="#3a414a"/><path d="M1519.37 404.72l-14.27 4.64v-9.27z" fill="#3a414a"/><path d="M1520.98 404.72l-16.38 5.33V399.4zm-15.38 3.95l12.15-3.95-12.15-3.94z" stroke="#3a414a" stroke-width=".05" fill="#3a414a"/><g><use xlink:href="#z" transform="matrix(1,0,0,1,1382.8741136141136,394.0575698000019) translate(0 14.222222222222223)"/></g><path d="M1521.48 255.04a6 6 0 0 1 6-6h188a6 6 0 0 1 6 6v77.45a6 6 0 0 1-6 6h-188a6 6 0 0 1-6-6z" stroke="#3a414a" fill="#fff"/><g><use xlink:href="#u" transform="matrix(1,0,0,1,1533.4836941820145,261.0399185604512) translate(41.798828125 28.876953125)"/><use xlink:href="#o" transform="matrix(1,0,0,1,1533.4836941820145,261.0399185604512) translate(25.5341796875 52.158203125)"/><use xlink:href="#f" transform="matrix(1,0,0,1,1533.4836941820145,261.0399185604512) translate(90.9833984375 52.158203125)"/></g><path d="M1521.48 476.96a6 6 0 0 1 6-6h188a6 6 0 0 1 6 6v77.45a6 6 0 0 1-6 6h-188a6 6 0 0 1-6-6z" stroke="#3a414a" fill="#fff"/><g><use xlink:href="#u" transform="matrix(1,0,0,1,1533.4836941820145,482.9600814395488) translate(41.798828125 28.876953125)"/><use xlink:href="#o" transform="matrix(1,0,0,1,1533.4836941820145,482.9600814395488) translate(25.5341796875 52.158203125)"/><use xlink:href="#f" transform="matrix(1,0,0,1,1533.4836941820145,482.9600814395488) translate(90.9833984375 52.158203125)"/></g><path d="M996.2 404.63h-33.88v-1h33.9zm108.23 0h-18v-1h18z" stroke="#3a414a" stroke-width=".05" fill="#3a414a"/><path d="M962.33 404.63h-.5v-1h.5z" fill="#3a414a"/><path d="M962.36 404.65h-.57v-1.05h.56zm-.52-1v.95h.46v-.95z" stroke="#3a414a" stroke-width=".05" fill="#3a414a"/><path d="M1119.2 404.13l-14.27 4.63v-9.27z" fill="#3a414a"/><path d="M1120.82 404.13l-16.4 5.32V398.8zm-15.4 3.94l12.16-3.94-12.15-3.95z" stroke="#3a414a" stroke-width=".05" fill="#3a414a"/><g><use xlink:href="#g" transform="matrix(1,0,0,1,996.2058660184282,393.4599634202331) translate(0 14.222222222222223)"/></g><path d="M1122.02 460h218.48v40h-218.48z" fill="none"/><g><use xlink:href="#A" transform="matrix(1,0,0,1,1122.0223551487088,460) translate(27.05555555555557 14.222222222222221)"/><use xlink:href="#B" transform="matrix(1,0,0,1,1122.0223551487088,460) translate(101.08024691358024 14.222222222222221)"/><use xlink:href="#C" transform="matrix(1,0,0,1,1122.0223551487088,460) translate(141.57407407407408 14.222222222222221)"/><use xlink:href="#D" transform="matrix(1,0,0,1,1122.0223551487088,460) translate(28.043209876543216 35.55555555555556)"/><use xlink:href="#E" transform="matrix(1,0,0,1,1122.0223551487088,460) translate(51.74691358024692 35.55555555555556)"/><use xlink:href="#F" transform="matrix(1,0,0,1,1122.0223551487088,460) translate(85.32716049382717 35.55555555555556)"/><use xlink:href="#G" transform="matrix(1,0,0,1,1122.0223551487088,460) translate(115.89506172839506 35.55555555555556)"/><use xlink:href="#H" transform="matrix(1,0,0,1,1122.0223551487088,460) translate(171.2037037037037 35.55555555555556)"/></g><defs><path fill="#3a414a" d="M80-196l47-18 7 23-49 13 32 44-20 13-27-46-27 45-21-12 33-44-49-13 8-23 47 19-2-53h23" id="I"/><path fill="#3a414a" d="M87-220l-18 92h140l-5 28H64L45 0H11l48-248h178l-5 28H87" id="J"/><path fill="#3a414a" d="M50-231l6-30h32l-6 30H50zM6 0l37-190h31L37 0H6" id="K"/><path fill="#3a414a" d="M67-158c22-48 132-52 116 29L158 0h-32l25-140c3-38-53-32-70-12C52-117 51-52 38 0H6l36-190h30" id="L"/><path fill="#3a414a" d="M111-194c62-3 86 47 72 106H45c-7 38 6 69 45 68 27-1 43-14 53-32l24 11C152-15 129 4 87 4 38 3 12-23 12-71c0-70 32-119 99-123zm44 81c14-66-71-72-95-28-4 8-8 17-11 28h106" id="M"/><path fill="#3a414a" d="M18-82l6-28h88l-6 28H18" id="N"/><path fill="#3a414a" d="M151-220L108 0H75l42-220H32l6-28h203l-5 28h-85" id="O"/><path fill="#3a414a" d="M67 3c-93-2-31-127-26-193h32L48-50c-3 39 53 32 70 12 30-34 30-101 43-152h32L157 0h-30c1-10 6-24 4-33-14 20-29 37-64 36" id="P"/><g id="a"><use transform="matrix(0.049382716049382706,0,0,0.049382716049382706,0,0)" xlink:href="#I"/><use transform="matrix(0.049382716049382706,0,0,0.049382716049382706,6.913580246913579,0)" xlink:href="#J"/><use transform="matrix(0.049382716049382706,0,0,0.049382716049382706,17.728395061728392,0)" xlink:href="#K"/><use transform="matrix(0.049382716049382706,0,0,0.049382716049382706,21.629629629629626,0)" xlink:href="#L"/><use transform="matrix(0.049382716049382706,0,0,0.049382716049382706,31.506172839506167,0)" xlink:href="#M"/><use transform="matrix(0.049382716049382706,0,0,0.049382716049382706,41.38271604938271,0)" xlink:href="#N"/><use transform="matrix(0.049382716049382706,0,0,0.049382716049382706,47.25925925925925,0)" xlink:href="#O"/><use transform="matrix(0.049382716049382706,0,0,0.049382716049382706,56.740740740740726,0)" xlink:href="#P"/><use transform="matrix(0.049382716049382706,0,0,0.049382716049382706,66.61728395061728,0)" xlink:href="#L"/><use transform="matrix(0.049382716049382706,0,0,0.049382716049382706,76.49382716049382,0)" xlink:href="#M"/></g><path fill="#3a414a" d="M30-147c31-64 166-65 159 27C183-49 158 1 86 4 9 8 1-88 30-147zM88-20c53 0 68-48 68-100 0-31-11-51-44-50-52 1-68 46-68 97 0 32 13 53 44 53" id="Q"/><g id="b"><use transform="matrix(0.049382716049382706,0,0,0.049382716049382706,0,0)" xlink:href="#Q"/><use transform="matrix(0.049382716049382706,0,0,0.049382716049382706,9.87654320987654,0)" xlink:href="#L"/></g><path fill="#3a414a" d="M194-120c59 52 2 134-86 124-53-6-90-18-98-63l31-7c8 30 29 43 70 43 46 0 84-17 71-62-32-43-135-20-137-98-3-89 178-90 191-16l-30 9c-8-48-127-53-127 5 0 53 81 35 115 65" id="R"/><path fill="#3a414a" d="M165-48c-4 18 1 34 23 27l-3 20c-29 8-62 0-52-35h-2C116-14 99 4 63 4 30 4 8-16 8-49c0-68 71-67 138-67 10-26 0-56-31-54-26 1-42 9-47 31l-32-5c8-67 160-71 144 15-5 28-9 54-15 81zM42-50c3 52 80 24 89-6 7-12 7-24 11-38-47 1-103-4-100 44" id="S"/><path fill="#3a414a" d="M66-151c12-25 30-51 66-40l-6 26C45-176 58-65 38 0H6l36-190h30" id="T"/><path fill="#3a414a" d="M44-68c0 29 11 47 38 47 30 0 42-19 51-41l28 9C148-21 126 4 82 4 31 4 10-29 12-85c3-77 74-140 146-93 12 8 15 23 18 40l-31 5c-1-22-13-36-36-36-52 0-65 49-65 101" id="U"/><path fill="#3a414a" d="M55-144c13 50 104 24 104 88C159 21 15 23 1-39l26-10c6 40 102 42 102-4-13-50-104-23-104-87 0-71 143-71 148-8l-29 4c-5-35-85-37-89 0" id="V"/><path fill="#3a414a" d="M248-111c6-24 9-61-24-58-72 9-57 108-77 169h-31l26-142c3-37-50-30-64-10C52-115 50-51 37 0H6l36-190h30c-1 10-6 24-4 32 13-43 101-52 105 5 13-22 29-41 61-41 90 0 28 129 23 194h-31" id="W"/><g id="c"><use transform="matrix(0.049382716049382706,0,0,0.049382716049382706,0,0)" xlink:href="#K"/><use transform="matrix(0.049382716049382706,0,0,0.049382716049382706,3.9012345679012337,0)" xlink:href="#R"/><use transform="matrix(0.049382716049382706,0,0,0.049382716049382706,15.753086419753084,0)" xlink:href="#S"/><use transform="matrix(0.049382716049382706,0,0,0.049382716049382706,25.629629629629626,0)" xlink:href="#T"/><use transform="matrix(0.049382716049382706,0,0,0.049382716049382706,31.506172839506167,0)" xlink:href="#U"/><use transform="matrix(0.049382716049382706,0,0,0.049382716049382706,40.395061728395056,0)" xlink:href="#S"/><use transform="matrix(0.049382716049382706,0,0,0.049382716049382706,50.271604938271594,0)" xlink:href="#V"/><use transform="matrix(0.049382716049382706,0,0,0.049382716049382706,59.16049382716048,0)" xlink:href="#W"/></g><path fill="#3a414a" d="M952-299c53 28 65 116 26 173C912-25 777 20 604 20 249 20 96-183 96-545c0-366 147-579 502-579 170 0 310 34 380 130 46 63 27 167-26 205-49 36-119 55-213 54-1-102-14-196-69-243-36-31-106-28-144 0-103 75-114 241-114 431 0 139 19 242 57 311s100 103 186 103c149 0 244-68 297-166" id="X"/><path fill="#3a414a" d="M631-1124c358 0 526 209 528 571 2 373-172 573-534 573C267 20 98-190 96-553c-2-374 172-571 535-571zM527-966c-131 91-126 390-101 605 16 136 58 252 203 252 203 0 213-228 213-444 0-180-15-339-115-413-51-37-148-36-200 0" id="Y"/><path fill="#3a414a" d="M1169-254c-4 106 37 152 144 145V0H858v-674c-2-147-22-276-164-276-152 0-178 160-178 317v391c-3 102 51 138 154 133V0H41v-109c107 5 164-34 164-141v-606c3-102-52-138-154-133v-109h430l27 146h10c58-113 144-175 313-172 240 5 338 149 338 395v475" id="Z"/><path fill="#3a414a" d="M508-324c1 114 29 177 135 179 53 0 102-9 145-19v133C712 3 611 19 498 20 289 22 197-91 197-303v-655H43v-105c87 2 160-42 201-86 42-44 73-112 94-203h170v254h262v140H508v634" id="aa"/><path fill="#3a414a" d="M516-246c-4 127 81 146 209 137V0H41v-109c110 5 164-37 164-147v-594c3-104-49-145-154-139v-109h414l41 160h10c46-115 125-184 289-184 142 0 235 41 235 166 0 137-111 200-260 198-1-92-10-170-100-170-129 0-152 146-162 271-11 134 3 274-2 411" id="ab"/><path fill="#3a414a" d="M516-242c0 102 66 138 170 133V0H35v-109c104 5 170-31 170-133v-1081c0-98-69-130-170-125v-108h481v1314" id="ac"/><path fill="#3a414a" d="M950 291H-10V170h960v121" id="ad"/><path fill="#3a414a" d="M70-735c0-415 96-748 505-748 400 0 500 341 500 750 0 322-69 583-273 699-63 36-140 54-229 54C165 20 70-320 70-735zm354-453c-48 181-43 492-29 717 8 132 28 245 85 316 44 56 143 57 186 0 94-124 92-352 92-578 0-171-3-328-35-455-22-87-55-162-148-162-94 0-128 75-151 162" id="ae"/><path fill="#3a414a" d="M530-1483c296-2 528 126 458 433-46 203-201 315-336 455-112 116-264 253-386 370h477c122 0 167-98 187-205h121L1040 0H72v-211c147-155 330-320 459-484 96-121 158-235 159-438 1-136-42-225-160-225-69 0-118 30-146 90s-42 147-42 264c-153-1-262-50-262-202s121-216 254-254c56-15 121-23 196-23" id="af"/><g id="d"><use transform="matrix(0.009765625,0,0,0.009765625,0,0)" xlink:href="#X"/><use transform="matrix(0.009765625,0,0,0.009765625,10.537109375,0)" xlink:href="#Y"/><use transform="matrix(0.009765625,0,0,0.009765625,22.79296875,0)" xlink:href="#Z"/><use transform="matrix(0.009765625,0,0,0.009765625,35.9375,0)" xlink:href="#aa"/><use transform="matrix(0.009765625,0,0,0.009765625,44.033203125,0)" xlink:href="#ab"/><use transform="matrix(0.009765625,0,0,0.009765625,54.296875,0)" xlink:href="#Y"/><use transform="matrix(0.009765625,0,0,0.009765625,66.552734375,0)" xlink:href="#ac"/><use transform="matrix(0.009765625,0,0,0.009765625,73.59375,0)" xlink:href="#ad"/><use transform="matrix(0.009765625,0,0,0.009765625,82.7734375,0)" xlink:href="#ae"/><use transform="matrix(0.009765625,0,0,0.009765625,93.955078125,0)" xlink:href="#af"/></g><path fill="#3a414a" d="M307-86c126 7 215-13 215-137v-1137c-117 7-264-23-322 50-39 48-42 130-53 206H41l10-358h1153l10 358h-106c-10-135-29-256-180-256H729v1127c-5 128 84 155 215 147V0H307v-86" id="ag"/><path fill="#3a414a" d="M467-106c176 0 267-107 272-285v-166c-189 6-378 9-423 154-10 31-15 66-15 106 0 123 47 191 166 191zm272-535c5-199 13-375-190-375-142 0-190 83-187 223-106-2-174-27-174-129 0-169 191-191 369-196 250-7 375 104 375 354v531c-3 100 32 153 133 147V0H788l-32-176h-17C664-76 596 23 420 20 213 16 102-97 102-307c0-109 41-186 116-242 100-75 325-89 521-92" id="ah"/><path fill="#3a414a" d="M434-223C430-95 529-79 659-86V0H68v-86c112 4 174-35 174-147v-639c2-108-66-143-174-140v-86h315l39 203h10c50-120 106-223 281-223 151 0 257 68 211 208-21 64-90 87-181 87-2-101-16-160-108-160-128 0-157 140-183 255-33 148-12 333-18 505" id="ai"/><path fill="#3a414a" d="M956-1161c125-12 164 158 62 205-14 6-30 8-49 8 9-84-106-83-156-45 48 62 81 134 80 248-2 265-188 381-475 346-48 26-98 54-99 125-1 68 58 77 127 77h232c215 1 338 97 338 306 0 294-237 379-543 383-249 3-426-81-426-299C47 28 162-41 303-70c-62-29-113-79-113-168 0-105 57-142 134-192-112-50-185-152-185-309 0-249 134-379 385-379 97 0 179 25 234 67 49-50 103-100 198-110zM438-14c-139-3-225 52-225 194 0 158 102 212 264 211 212-1 363-46 371-248C856-58 624-10 438-14zm78-1004c-150 0-184 109-184 273 0 159 39 250 186 253 149 3 184-105 182-256-2-165-33-270-184-270" id="aj"/><path fill="#3a414a" d="M786-645c-4-191-36-363-223-363-76 0-134 30-175 92s-66 152-73 271h471zm123 393c43 21 51 90 17 136C862-29 744 20 588 20c-331 0-471-225-475-561-4-348 134-577 454-577 327 0 443 231 426 583H311c7 242 67 426 305 426 140 0 234-60 293-143" id="ak"/><path fill="#3a414a" d="M387-291c-2 124 47 200 156 203 51 1 88-6 131-14v90C626 8 560 18 492 20 278 25 195-83 195-297v-684H39v-82c170-8 224-133 254-287h94v252h268v117H387v690" id="al"/><g id="e"><use transform="matrix(0.009765625,0,0,0.009765625,0,0)" xlink:href="#ag"/><use transform="matrix(0.009765625,0,0,0.009765625,11.455078125,0)" xlink:href="#ah"/><use transform="matrix(0.009765625,0,0,0.009765625,22.71484375,0)" xlink:href="#ai"/><use transform="matrix(0.009765625,0,0,0.009765625,31.943359375,0)" xlink:href="#aj"/><use transform="matrix(0.009765625,0,0,0.009765625,42.509765625,0)" xlink:href="#ak"/><use transform="matrix(0.009765625,0,0,0.009765625,53.212890625,0)" xlink:href="#al"/></g><path fill="#3a414a" d="M1649-233c-4 120 72 154 194 147V0h-545v-86c102 5 154-32 154-129v-1094L983 0H872L397-1305v1072c-4 108 46 153 154 147V0H78v-86c117 6 194-21 194-137v-1014c3-115-76-146-194-139v-86h467L969-291l420-1171h454v86c-122-7-194 27-194 147v996" id="am"/><path fill="#3a414a" d="M594-1118c338 0 472 222 475 567 2 360-143 571-481 571S115-205 113-551c-2-359 142-567 481-567zm-4 108c-241 0-279 212-279 459 0 249 39 465 281 465s278-216 278-465c0-248-38-459-280-459" id="an"/><path fill="#3a414a" d="M844-1331c2-112-71-145-185-139v-86h377v1331c-2 112 71 145 185 139V0H874l-22-184h-8C786-68 701 20 530 20c-321 0-417-237-417-567 0-331 95-571 417-571 163 0 254 76 314 180h12c-10-128-14-255-12-393zM563-987c-219 0-252 212-252 442 0 145 20 254 59 326s104 108 195 108c242 2 279-192 279-436s-41-440-281-440" id="ao"/><path fill="#3a414a" d="M414-233c-4 120 72 154 194 147V0H27v-86c122 7 194-28 194-147v-1098c3-115-76-146-194-139v-86h387v1323" id="ap"/><g id="f"><use transform="matrix(0.009765625,0,0,0.009765625,0,0)" xlink:href="#am"/><use transform="matrix(0.009765625,0,0,0.009765625,18.759765625,0)" xlink:href="#an"/><use transform="matrix(0.009765625,0,0,0.009765625,30.302734375,0)" xlink:href="#ao"/><use transform="matrix(0.009765625,0,0,0.009765625,42.578125,0)" xlink:href="#ak"/><use transform="matrix(0.009765625,0,0,0.009765625,53.28125,0)" xlink:href="#ap"/></g><path fill="#333" d="M76-208v77h127v40H76V0H24v-248h183v40H76" id="aq"/><path fill="#333" d="M25-224v-37h50v37H25zM25 0v-190h50V0H25" id="ar"/><path fill="#333" d="M135-194c87-1 58 113 63 194h-50c-7-57 23-157-34-157-59 0-34 97-39 157H25l-1-190h47c2 12-1 28 3 38 12-26 28-41 61-42" id="as"/><path fill="#333" d="M185-48c-13 30-37 53-82 52C43 2 14-33 14-96s30-98 90-98c62 0 83 45 84 108H66c0 31 8 55 39 56 18 0 30-7 34-22zm-45-69c5-46-57-63-70-21-2 6-4 13-4 21h74" id="at"/><path fill="#333" d="M14-72v-43h91v43H14" id="au"/><path fill="#333" d="M136-208V0H84v-208H4v-40h212v40h-80" id="av"/><path fill="#333" d="M85 4C-2 5 27-109 22-190h50c7 57-23 150 33 157 60-5 35-97 40-157h50l1 190h-47c-2-12 1-28-3-38-12 25-28 42-61 42" id="aw"/><path fill="#333" d="M86-200l42-18 12 35-44 11 32 37-32 21-26-44-26 44-32-21 33-37-44-11 12-35 42 18-3-48h38" id="ax"/><g id="g"><use transform="matrix(0.04938271604938272,0,0,0.04938271604938272,0,0)" xlink:href="#aq"/><use transform="matrix(0.04938271604938272,0,0,0.04938271604938272,10.814814814814815,0)" xlink:href="#ar"/><use transform="matrix(0.04938271604938272,0,0,0.04938271604938272,15.753086419753087,0)" xlink:href="#as"/><use transform="matrix(0.04938271604938272,0,0,0.04938271604938272,26.567901234567902,0)" xlink:href="#at"/><use transform="matrix(0.04938271604938272,0,0,0.04938271604938272,36.44444444444444,0)" xlink:href="#au"/><use transform="matrix(0.04938271604938272,0,0,0.04938271604938272,42.32098765432099,0)" xlink:href="#av"/><use transform="matrix(0.04938271604938272,0,0,0.04938271604938272,51.802469135802475,0)" xlink:href="#aw"/><use transform="matrix(0.04938271604938272,0,0,0.04938271604938272,62.61728395061729,0)" xlink:href="#as"/><use transform="matrix(0.04938271604938272,0,0,0.04938271604938272,73.4320987654321,0)" xlink:href="#at"/><use transform="matrix(0.04938271604938272,0,0,0.04938271604938272,83.30864197530865,0)" xlink:href="#ax"/></g><path fill="#3a414a" d="M643-1464c-244 139-313 433-313 815s69 678 313 817v94C288 130 117-156 117-649c0-361 84-614 285-771 67-53 147-99 241-136v92" id="ay"/><path fill="#3a414a" d="M66 168C309 28 379-267 379-649s-70-676-313-815v-92c355 132 526 415 526 907 0 361-85 617-285 775-67 53-147 99-241 136v-94" id="az"/><g id="h"><use transform="matrix(0.013020833333333332,0,0,0.013020833333333332,0,0)" xlink:href="#ay"/><use transform="matrix(0.013020833333333332,0,0,0.013020833333333332,9.231770833333332,0)" xlink:href="#ah"/><use transform="matrix(0.013020833333333332,0,0,0.013020833333333332,24.244791666666664,0)" xlink:href="#az"/></g><path fill="#3a414a" d="M1141-289c47 27 51 110 13 159C1076-28 927 20 739 20c-439 0-622-310-622-753 0-346 130-585 372-695 199-90 579-71 673 84 39 64 27 161-25 196-32 21-74 38-127 38-5-158-78-264-240-264-349 0-426 285-426 641 0 266 62 478 232 573 54 30 119 45 194 45 183 1 293-72 371-174" id="aA"/><path fill="#3a414a" d="M434-223c-3 108 66 141 174 137V0H57v-86c118 6 185-31 185-147v-639c2-108-66-143-174-140v-86h331l27 166h10c63-113 148-188 320-186 244 3 343 152 344 401v484c-4 110 54 152 164 147V0H907v-707c0-170-55-282-225-280-187 3-248 145-248 332v432" id="aB"/><g id="i"><use transform="matrix(0.013020833333333332,0,0,0.013020833333333332,0,0)" xlink:href="#aA"/><use transform="matrix(0.013020833333333332,0,0,0.013020833333333332,15.833333333333336,0)" xlink:href="#an"/><use transform="matrix(0.013020833333333332,0,0,0.013020833333333332,31.223958333333332,0)" xlink:href="#aB"/><use transform="matrix(0.013020833333333332,0,0,0.013020833333333332,48.1640625,0)" xlink:href="#al"/><use transform="matrix(0.013020833333333332,0,0,0.013020833333333332,57.55208333333333,0)" xlink:href="#ai"/><use transform="matrix(0.013020833333333332,0,0,0.013020833333333332,69.85677083333333,0)" xlink:href="#an"/><use transform="matrix(0.013020833333333332,0,0,0.013020833333333332,85.24739583333333,0)" xlink:href="#ap"/></g><g id="j"><use transform="matrix(0.013020833333333332,0,0,0.013020833333333332,0,0)" xlink:href="#am"/><use transform="matrix(0.013020833333333332,0,0,0.013020833333333332,25.013020833333332,0)" xlink:href="#an"/><use transform="matrix(0.013020833333333332,0,0,0.013020833333333332,40.40364583333333,0)" xlink:href="#ao"/><use transform="matrix(0.013020833333333332,0,0,0.013020833333333332,56.77083333333333,0)" xlink:href="#ak"/><use transform="matrix(0.013020833333333332,0,0,0.013020833333333332,71.04166666666666,0)" xlink:href="#ap"/></g><path fill="#3a414a" d="M434-233c-3 120 73 154 195 147V0H47v-86c118 6 195-21 195-137v-649c2-108-66-143-174-140v-86h366v865zM330-1303c-79 0-117-45-117-127s37-126 117-126c79 0 116 46 116 126 0 81-37 127-116 127" id="aC"/><g id="k"><use transform="matrix(0.013020833333333332,0,0,0.013020833333333332,0,0)" xlink:href="#ag"/><use transform="matrix(0.013020833333333332,0,0,0.013020833333333332,16.341145833333332,0)" xlink:href="#ai"/><use transform="matrix(0.013020833333333332,0,0,0.013020833333333332,28.906249999999996,0)" xlink:href="#ah"/><use transform="matrix(0.013020833333333332,0,0,0.013020833333333332,43.91927083333333,0)" xlink:href="#aC"/><use transform="matrix(0.013020833333333332,0,0,0.013020833333333332,52.44791666666666,0)" xlink:href="#aB"/><use transform="matrix(0.013020833333333332,0,0,0.013020833333333332,69.64843749999999,0)" xlink:href="#aC"/><use transform="matrix(0.013020833333333332,0,0,0.013020833333333332,78.17708333333331,0)" xlink:href="#aB"/><use transform="matrix(0.013020833333333332,0,0,0.013020833333333332,95.37760416666664,0)" xlink:href="#aj"/></g><path fill="#3a414a" d="M686-1462c328 4 559 115 559 434 0 359-281 480-674 469v328c-1 81 30 122 109 122h125V0H57v-109h86c83 3 106-49 105-133v-987c1-82-26-125-105-125H57v-108h629zm215 442c0-195-55-324-250-321h-80v663h50c215 5 280-127 280-342" id="aD"/><path fill="#3a414a" d="M682-968c-75-53-166-16-210 62-32 57-53 140-56 249h354c-1-134-12-257-88-311zm4 835c147 0 236-69 289-166 63 29 71 123 31 183C939-17 799 20 627 20 270 20 96-185 96-543c0-359 153-581 508-581 315 0 475 175 479 493v105H412c10 217 60 393 274 393" id="aE"/><path fill="#3a414a" d="M526-129c139 0 193-116 193-262v-154c-144 3-272 20-298 142-6 28-11 61-11 98 1 103 24 176 116 176zm193-524c-6-153 30-348-127-346-115 1-136 103-137 221-92 0-160-13-207-31-80-31-88-141-36-202 75-88 224-112 388-113 266-2 430 83 430 348v522c-3 99 29 152 131 145V0H780l-43-141h-18C646-52 578 24 414 20 206 14 92-101 92-313c0-254 188-323 459-334" id="aF"/><path fill="#3a414a" d="M350-1282c-103 0-174-45-174-148 0-104 70-147 174-147 103 0 176 44 176 147 0 102-74 148-176 148zM516-242c0 102 66 138 170 133V0H35v-109c104 5 170-31 170-133v-622c0-98-69-130-170-125v-109h481v856" id="aG"/><path fill="#3a414a" d="M811-1321c2-107-74-131-182-127v-108h493v1304c-2 111 68 146 178 143V0H903l-57-160h-19C768-53 677 20 512 20 192 20 94-217 94-547s95-575 414-575c154 0 247 67 305 164h14c-9-120-19-232-16-363zM600-133c203 0 211-207 211-418 0-170-13-323-109-393-48-34-143-39-190 0-88 74-102 228-102 395 0 139 15 244 44 313s77 103 146 103" id="aH"/><g id="l"><use transform="matrix(0.009765625,0,0,0.009765625,0,0)" xlink:href="#aD"/><use transform="matrix(0.009765625,0,0,0.009765625,12.763671875,0)" xlink:href="#ab"/><use transform="matrix(0.009765625,0,0,0.009765625,23.22265625,0)" xlink:href="#aE"/><use transform="matrix(0.009765625,0,0,0.009765625,34.638671875,0)" xlink:href="#aa"/><use transform="matrix(0.009765625,0,0,0.009765625,42.734375,0)" xlink:href="#ab"/><use transform="matrix(0.009765625,0,0,0.009765625,53.193359375,0)" xlink:href="#aF"/><use transform="matrix(0.009765625,0,0,0.009765625,65.17578125,0)" xlink:href="#aG"/><use transform="matrix(0.009765625,0,0,0.009765625,72.216796875,0)" xlink:href="#Z"/><use transform="matrix(0.009765625,0,0,0.009765625,85.556640625,0)" xlink:href="#aE"/><use transform="matrix(0.009765625,0,0,0.009765625,96.97265625,0)" xlink:href="#aH"/></g><path d="M571-231c-1 80 27 122 105 122h88V0H57v-109h86c78 2 105-42 105-122v-998c1-81-27-125-105-125H57v-108h660c193 0 335 32 425 97s136 159 136 282c0 215-126 322-279 387l244 420c54 79 90 162 213 167V0c-184 1-347 0-436-91-24-25-49-55-70-93L707-635H571v404zm363-824c0-187-65-291-252-286H571v587h115c189 4 248-113 248-301" id="aI"/><path d="M631-1124c358 0 526 209 528 571 2 373-172 573-534 573C267 20 98-190 96-553c-2-374 172-571 535-571zM527-966c-131 91-126 390-101 605 16 136 58 252 203 252 203 0 213-228 213-444 0-180-15-339-115-413-51-37-148-36-200 0" id="aJ"/><path d="M248-1223c1-83-28-131-107-131H57v-108c347 13 826-44 1037 90 97 62 147 154 147 282 0 190-114 265-258 312v10c178 49 320 147 320 367 0 135-49 235-147 301S912 0 717 0H57v-109h84c83 3 107-49 107-133v-981zm710 815c0-188-59-298-247-294H571v577h136c187 6 251-95 251-283zm-61-682c0-177-76-253-252-247h-74v510h78c181 6 248-82 248-263" id="aK"/><path d="M248-1221c1-84-22-133-105-133H57v-108h1137l8 377h-143c-13-120-11-252-141-252H573v512h486v123H573v577h410c128-4 125-141 147-252h142L1257 0H57v-109h86c79 3 105-42 105-122v-990" id="aL"/><path d="M401-109c83 3 106-49 105-133v-1095c-128 5-285-27-320 84-17 54-19 125-28 188H20l11-397h1276l10 397h-137c-16-108-6-236-108-262-64-16-162-7-241-10v1095c-1 84 23 133 105 133h86V0H315v-109h86" id="aM"/><path d="M526-129c139 0 193-116 193-262v-154c-144 3-272 20-298 142-6 28-11 61-11 98 1 103 24 176 116 176zm193-524c-6-153 30-348-127-346-115 1-136 103-137 221-92 0-160-13-207-31-80-31-88-141-36-202 75-88 224-112 388-113 266-2 430 83 430 348v522c-3 99 29 152 131 145V0H780l-43-141h-18C646-52 578 24 414 20 206 14 92-101 92-313c0-254 188-323 459-334" id="aN"/><path d="M821-1122c319 4 412 240 412 569 0 332-96 573-420 573-163 0-254-75-313-180h-19L424 0H35v-109c108 4 170-35 170-143v-1059c2-106-64-140-170-137v-108h481c-1 204 6 415-16 598h14c59-99 149-166 307-164zM516-553c0 209 10 420 211 420 67 0 113-38 146-109 57-123 58-506 0-626-33-68-79-103-148-103-202 0-209 208-209 418" id="aO"/><path d="M918-340C918-83 735 20 473 20 291 20 148-13 84-124c-28-48-33-130-4-176 31-52 94-75 172-75 4 159 67 268 221 275 134 7 248-76 191-200-56-121-266-138-386-206C171-566 82-637 82-797c0-243 192-325 440-325 157 0 279 31 339 121 38 57 21 139-29 174-33 23-85 36-160 36 1-128-56-215-180-215-113 0-209 80-154 186 62 119 269 132 394 204 99 57 186 127 186 276" id="aP"/><path d="M682-968c-75-53-166-16-210 62-32 57-53 140-56 249h354c-1-134-12-257-88-311zm4 835c147 0 236-69 289-166 63 29 71 123 31 183C939-17 799 20 627 20 270 20 96-185 96-543c0-359 153-581 508-581 315 0 475 175 479 493v105H412c10 217 60 393 274 393" id="aQ"/><g id="m"><use transform="matrix(0.008680533854166665,0,0,0.008680533854166665,0,0)" xlink:href="#aI"/><use transform="matrix(0.008680533854166665,0,0,0.008680533854166665,12.213511132812497,0)" xlink:href="#aJ"/><use transform="matrix(0.008680533854166665,0,0,0.008680533854166665,23.107581119791664,0)" xlink:href="#aK"/><use transform="matrix(0.008680533854166665,0,0,0.008680533854166665,35.051995703124994,0)" xlink:href="#aL"/><use transform="matrix(0.008680533854166665,0,0,0.008680533854166665,46.657869466145826,0)" xlink:href="#aI"/><use transform="matrix(0.008680533854166665,0,0,0.008680533854166665,58.871380598958325,0)" xlink:href="#aM"/><use transform="matrix(0.008680533854166665,0,0,0.008680533854166665,69.76545058593749,0)" xlink:href="#aN"/><use transform="matrix(0.005208333333333334,0,0,0.005208333333333334,80.41646562499999,0)" xlink:href="#aO"/><use transform="matrix(0.005208333333333334,0,0,0.005208333333333334,87.33834062499999,0)" xlink:href="#aN"/><use transform="matrix(0.005208333333333334,0,0,0.005208333333333334,93.72896562499999,0)" xlink:href="#aP"/><use transform="matrix(0.005208333333333334,0,0,0.005208333333333334,98.93209062499999,0)" xlink:href="#aQ"/></g><path fill="#3a414a" d="M774-242c-1 82 21 133 105 133h165V0H199v-109h168c81 1 102-50 102-133v-1026c-63 75-117 154-203 198-100 51-184-27-180-136 189-46 319-164 459-264h229v1228" id="aR"/><g id="n"><use transform="matrix(0.009765625,0,0,0.009765625,0,0)" xlink:href="#X"/><use transform="matrix(0.009765625,0,0,0.009765625,10.537109375,0)" xlink:href="#Y"/><use transform="matrix(0.009765625,0,0,0.009765625,22.79296875,0)" xlink:href="#Z"/><use transform="matrix(0.009765625,0,0,0.009765625,35.9375,0)" xlink:href="#aa"/><use transform="matrix(0.009765625,0,0,0.009765625,44.033203125,0)" xlink:href="#ab"/><use transform="matrix(0.009765625,0,0,0.009765625,54.296875,0)" xlink:href="#Y"/><use transform="matrix(0.009765625,0,0,0.009765625,66.552734375,0)" xlink:href="#ac"/><use transform="matrix(0.009765625,0,0,0.009765625,73.59375,0)" xlink:href="#ad"/><use transform="matrix(0.009765625,0,0,0.009765625,82.7734375,0)" xlink:href="#ae"/><use transform="matrix(0.009765625,0,0,0.009765625,93.955078125,0)" xlink:href="#aR"/></g><g id="o"><use transform="matrix(0.009765625,0,0,0.009765625,0,0)" xlink:href="#ag"/><use transform="matrix(0.009765625,0,0,0.009765625,11.455078125,0)" xlink:href="#ah"/><use transform="matrix(0.009765625,0,0,0.009765625,22.71484375,0)" xlink:href="#ai"/><use transform="matrix(0.009765625,0,0,0.009765625,31.943359375,0)" xlink:href="#aj"/><use transform="matrix(0.009765625,0,0,0.009765625,42.509765625,0)" xlink:href="#ak"/><use transform="matrix(0.009765625,0,0,0.009765625,53.212890625,0)" xlink:href="#al"/></g><g id="p"><use transform="matrix(0.009765625,0,0,0.009765625,0,0)" xlink:href="#X"/><use transform="matrix(0.009765625,0,0,0.009765625,10.537109375,0)" xlink:href="#Y"/><use transform="matrix(0.009765625,0,0,0.009765625,22.79296875,0)" xlink:href="#Z"/><use transform="matrix(0.009765625,0,0,0.009765625,35.9375,0)" xlink:href="#aa"/><use transform="matrix(0.009765625,0,0,0.009765625,44.033203125,0)" xlink:href="#ab"/><use transform="matrix(0.009765625,0,0,0.009765625,54.296875,0)" xlink:href="#Y"/><use transform="matrix(0.009765625,0,0,0.009765625,66.552734375,0)" xlink:href="#ac"/><use transform="matrix(0.009765625,0,0,0.009765625,73.59375,0)" xlink:href="#ad"/><use transform="matrix(0.009765625,0,0,0.009765625,82.7734375,0)" xlink:href="#ae"/><use transform="matrix(0.009765625,0,0,0.009765625,93.955078125,0)" xlink:href="#af"/></g><path fill="#3a414a" d="M1169-254c-4 106 37 152 144 145V0H858v-674c-2-147-22-276-164-276-152 0-178 160-178 317v391c-3 102 51 138 154 133V0H41v-109c107 5 164-34 164-141v-612c3-102-52-138-154-133v-103h430l27 146h10c58-113 144-176 313-172 157 3 265 55 310 172h18c58-115 154-175 326-172 240 4 338 149 338 395v475c-4 105 37 152 143 145V0h-455v-674c-3-152-24-276-163-276-145 0-179 143-179 293v403" id="aS"/><g id="q"><use transform="matrix(0.009765625,0,0,0.009765625,0,0)" xlink:href="#aG"/><use transform="matrix(0.009765625,0,0,0.009765625,7.041015625,0)" xlink:href="#Z"/><use transform="matrix(0.009765625,0,0,0.009765625,20.185546875,0)" xlink:href="#aa"/><use transform="matrix(0.009765625,0,0,0.009765625,28.0859375,0)" xlink:href="#aE"/><use transform="matrix(0.009765625,0,0,0.009765625,39.501953125,0)" xlink:href="#ab"/><use transform="matrix(0.009765625,0,0,0.009765625,49.9609375,0)" xlink:href="#aS"/><use transform="matrix(0.009765625,0,0,0.009765625,69.677734375,0)" xlink:href="#aE"/><use transform="matrix(0.009765625,0,0,0.009765625,81.09375,0)" xlink:href="#aH"/><use transform="matrix(0.009765625,0,0,0.009765625,94.072265625,0)" xlink:href="#aG"/><use transform="matrix(0.009765625,0,0,0.009765625,101.11328125,0)" xlink:href="#aF"/><use transform="matrix(0.009765625,0,0,0.009765625,112.900390625,0)" xlink:href="#aa"/><use transform="matrix(0.009765625,0,0,0.009765625,120.80078125,0)" xlink:href="#aE"/></g><path fill="#3a414a" d="M479-233c-3 120 73 154 195 147V0H78v-86c122 7 194-27 194-147v-996c4-120-72-154-194-147v-86h596v86c-122-7-195 27-195 147v996" id="aT"/><path fill="#3a414a" d="M434-223c-3 108 66 141 174 137V0H57v-86c121 8 185-28 185-147v-639c3-106-58-144-164-140v-86h321l27 166h10c60-112 141-188 309-186 158 2 252 69 297 186h17c61-114 150-188 321-186 240 3 333 155 334 401v484c-3 110 54 152 164 147V0h-356v-707c0-166-49-282-215-280-172 2-228 132-228 305v449c-3 110 54 152 164 147V0H887v-707c0-166-49-282-215-280-182 3-238 148-238 332v432" id="aU"/><g id="r"><use transform="matrix(0.009765625,0,0,0.009765625,0,0)" xlink:href="#aT"/><use transform="matrix(0.009765625,0,0,0.009765625,7.34375,0)" xlink:href="#aB"/><use transform="matrix(0.009765625,0,0,0.009765625,20.048828125,0)" xlink:href="#al"/><use transform="matrix(0.009765625,0,0,0.009765625,26.89453125,0)" xlink:href="#ak"/><use transform="matrix(0.009765625,0,0,0.009765625,37.59765625,0)" xlink:href="#ai"/><use transform="matrix(0.009765625,0,0,0.009765625,47.021484375,0)" xlink:href="#aU"/><use transform="matrix(0.009765625,0,0,0.009765625,65.91796875,0)" xlink:href="#ak"/><use transform="matrix(0.009765625,0,0,0.009765625,76.62109375,0)" xlink:href="#ao"/><use transform="matrix(0.009765625,0,0,0.009765625,88.896484375,0)" xlink:href="#aC"/><use transform="matrix(0.009765625,0,0,0.009765625,95.29296875,0)" xlink:href="#ah"/><use transform="matrix(0.009765625,0,0,0.009765625,106.357421875,0)" xlink:href="#al"/><use transform="matrix(0.009765625,0,0,0.009765625,113.203125,0)" xlink:href="#ak"/></g><g id="s"><use transform="matrix(0.009765625,0,0,0.009765625,0,0)" xlink:href="#am"/><use transform="matrix(0.009765625,0,0,0.009765625,18.759765625,0)" xlink:href="#an"/><use transform="matrix(0.009765625,0,0,0.009765625,30.302734375,0)" xlink:href="#ao"/><use transform="matrix(0.009765625,0,0,0.009765625,42.578125,0)" xlink:href="#ak"/><use transform="matrix(0.009765625,0,0,0.009765625,53.28125,0)" xlink:href="#ap"/></g><path fill="#3a414a" d="M1352-223c-3 116 77 143 194 137V0H950v-86c123 7 195-27 195-147v-480H479v480c-3 120 73 154 195 147V0H78v-86c122 7 194-27 194-147v-1004c3-115-76-146-194-139v-86h596v86c-122-7-195 27-195 147v414h666v-414c3-120-72-154-195-147v-86h596v86c-122-7-194 27-194 147v1006" id="aV"/><path fill="#3a414a" d="M1010-391c0 288-209 411-504 411-227 0-400-72-408-288-3-85 58-140 148-138 13 184 83 323 276 326 176 3 296-86 293-258-4-208-164-249-317-319-197-90-377-181-377-455 0-256 189-371 448-371 165 0 292 46 357 143 39 57 33 148-18 186-30 22-68 34-117 34-4-156-72-260-230-260-155 0-250 80-250 233 0 217 160 262 318 332 152 68 291 135 355 283 17 42 26 88 26 141" id="aW"/><path fill="#3a414a" d="M508-1012c-85 0-151 4-150 86 0 28 11 63 17 88 59 216 125 426 168 658h6c20-100 53-202 84-293l213-619h129c98 304 212 592 293 912h6c46-231 140-457 196-684 26-106-33-156-145-148v-86h438v86c-127-12-151 65-180 160L1319 0h-164L911-721l-37-135L584 0H422L154-903c-24-68-57-114-152-109v-86h506v86" id="aX"/><g id="t"><use transform="matrix(0.009765625,0,0,0.009765625,0,0)" xlink:href="#ay"/><use transform="matrix(0.009765625,0,0,0.009765625,6.923828125,0)" xlink:href="#aV"/><use transform="matrix(0.009765625,0,0,0.009765625,22.783203125,0)" xlink:href="#ak"/><use transform="matrix(0.009765625,0,0,0.009765625,33.486328125,0)" xlink:href="#ap"/><use transform="matrix(0.009765625,0,0,0.009765625,39.6875,0)" xlink:href="#ap"/><use transform="matrix(0.009765625,0,0,0.009765625,45.888671875,0)" xlink:href="#ah"/><use transform="matrix(0.009765625,0,0,0.009765625,57.1484375,0)" xlink:href="#aW"/><use transform="matrix(0.009765625,0,0,0.009765625,67.83203125,0)" xlink:href="#aX"/><use transform="matrix(0.009765625,0,0,0.009765625,84.453125,0)" xlink:href="#ah"/><use transform="matrix(0.009765625,0,0,0.009765625,95.712890625,0)" xlink:href="#aj"/><use transform="matrix(0.009765625,0,0,0.009765625,106.474609375,0)" xlink:href="#az"/></g><path fill="#3a414a" d="M989-1176c100-1 171 61 141 162-15 52-67 72-139 72 6-81-87-108-145-64 55 64 100 147 100 261 0 285-225 385-532 352-36 22-74 49-74 104 0 49 44 66 96 66h248c235 2 393 83 393 313 0 316-265 402-594 402-161 0-282-24-361-72S4 300 4 207C4 44 119-17 281-31c-76-32-150-78-150-182 0-121 101-163 182-215-125-48-209-148-209-317 0-256 154-379 428-379 96 0 183 29 244 63 52-55 107-114 213-115zM428 47c-110 0-183 43-182 156 2 128 101 165 241 166 120 0 207-17 262-52s82-86 82-153c0-96-64-117-165-117H428zm96-1048c-124 0-141 127-141 256 0 125 22 237 143 237 124 0 140-114 140-240 0-130-17-253-142-253" id="aY"/><path fill="#3a414a" d="M1051-422c0 322-234 442-553 442-192 0-343-40-416-152-45-68-24-173 27-212 30-23 71-41 122-41 3 166 87 262 252 262 179 0 256-114 252-301-3-184-129-264-317-268H291v-127h135c182-3 258-120 260-301 2-134-46-238-170-238-156 0-172 159-176 318-152-1-266-43-266-183 0-148 123-208 256-240 180-43 434-16 542 67 72 55 127 129 127 247 0 214-149 307-313 369 194 41 365 128 365 358" id="aZ"/><g id="u"><use transform="matrix(0.009765625,0,0,0.009765625,0,0)" xlink:href="#aa"/><use transform="matrix(0.009765625,0,0,0.009765625,8.095703125,0)" xlink:href="#aF"/><use transform="matrix(0.009765625,0,0,0.009765625,20.078125,0)" xlink:href="#ab"/><use transform="matrix(0.009765625,0,0,0.009765625,30.341796875,0)" xlink:href="#aY"/><use transform="matrix(0.009765625,0,0,0.009765625,41.34765625,0)" xlink:href="#aE"/><use transform="matrix(0.009765625,0,0,0.009765625,52.763671875,0)" xlink:href="#aa"/><use transform="matrix(0.009765625,0,0,0.009765625,60.859375,0)" xlink:href="#ad"/><use transform="matrix(0.009765625,0,0,0.009765625,70.0390625,0)" xlink:href="#ae"/><use transform="matrix(0.009765625,0,0,0.009765625,81.220703125,0)" xlink:href="#aZ"/></g><path fill="#3a414a" d="M727-1118c321 0 418 237 418 567 0 331-96 571-418 571-163 0-254-75-313-180h-13L365 0H37v-86c117 6 184-31 184-147v-1098c2-112-70-144-184-139v-86h377c-1 217 4 437-8 643h8c57-116 142-205 313-205zm219 565c0-230-32-430-254-434-242-4-278 193-278 436s40 440 280 440c221 0 252-212 252-442" id="ba"/><g id="v"><use transform="matrix(0.013020833333333332,0,0,0.013020833333333332,0,0)" xlink:href="#ay"/><use transform="matrix(0.013020833333333332,0,0,0.013020833333333332,9.231770833333332,0)" xlink:href="#ba"/><use transform="matrix(0.013020833333333332,0,0,0.013020833333333332,25.598958333333332,0)" xlink:href="#az"/></g><g id="w"><use transform="matrix(0.013020833333333332,0,0,0.013020833333333332,0,0)" xlink:href="#ag"/><use transform="matrix(0.013020833333333332,0,0,0.013020833333333332,15.273437499999998,0)" xlink:href="#ah"/><use transform="matrix(0.013020833333333332,0,0,0.013020833333333332,30.286458333333332,0)" xlink:href="#ai"/><use transform="matrix(0.013020833333333332,0,0,0.013020833333333332,42.59114583333333,0)" xlink:href="#aj"/><use transform="matrix(0.013020833333333332,0,0,0.013020833333333332,56.67968749999999,0)" xlink:href="#ak"/><use transform="matrix(0.013020833333333332,0,0,0.013020833333333332,70.95052083333333,0)" xlink:href="#al"/></g><g id="x"><use transform="matrix(0.049382716049382706,0,0,0.049382716049382706,0,0)" xlink:href="#I"/><use transform="matrix(0.049382716049382706,0,0,0.049382716049382706,6.913580246913579,0)" xlink:href="#I"/><use transform="matrix(0.049382716049382706,0,0,0.049382716049382706,13.827160493827158,0)" xlink:href="#J"/><use transform="matrix(0.049382716049382706,0,0,0.049382716049382706,24.64197530864197,0)" xlink:href="#K"/><use transform="matrix(0.049382716049382706,0,0,0.049382716049382706,28.543209876543205,0)" xlink:href="#L"/><use transform="matrix(0.049382716049382706,0,0,0.049382716049382706,38.419753086419746,0)" xlink:href="#M"/><use transform="matrix(0.049382716049382706,0,0,0.049382716049382706,48.29629629629629,0)" xlink:href="#N"/><use transform="matrix(0.049382716049382706,0,0,0.049382716049382706,54.17283950617284,0)" xlink:href="#O"/><use transform="matrix(0.049382716049382706,0,0,0.049382716049382706,63.65432098765432,0)" xlink:href="#P"/><use transform="matrix(0.049382716049382706,0,0,0.049382716049382706,73.53086419753086,0)" xlink:href="#L"/><use transform="matrix(0.049382716049382706,0,0,0.049382716049382706,83.4074074074074,0)" xlink:href="#M"/></g><path fill="#3a414a" d="M179 0l23-115H67L45 0H11l48-248h34L72-143h135l21-105h32L212 0h-33" id="bb"/><path fill="#3a414a" d="M6 0l50-261h32L37 0H6" id="bc"/><path fill="#3a414a" d="M188 0h-37l-8-164L71 0H34L18-190h31l8 164 75-164h34l8 164 74-164h31" id="bd"/><path fill="#3a414a" d="M103-194c29 0 47 14 56 36 2-11 5-23 8-32h30L160-5C157 61 82 97 21 62 9 55 4 45 1 30l28-7c7 42 83 31 92-3 4-16 9-38 13-55-13 20-29 36-62 36-40 0-60-25-60-64 0-71 23-131 91-131zm4 24c-53 0-58 54-61 104-2 27 10 44 36 44 49 0 65-50 67-102 1-29-15-46-42-46" id="be"/><g id="y"><use transform="matrix(0.049382716049382706,0,0,0.049382716049382706,0,0)" xlink:href="#bb"/><use transform="matrix(0.049382716049382706,0,0,0.049382716049382706,12.790123456790122,0)" xlink:href="#M"/><use transform="matrix(0.049382716049382706,0,0,0.049382716049382706,22.666666666666664,0)" xlink:href="#bc"/><use transform="matrix(0.049382716049382706,0,0,0.049382716049382706,26.567901234567895,0)" xlink:href="#bc"/><use transform="matrix(0.049382716049382706,0,0,0.049382716049382706,30.46913580246913,0)" xlink:href="#S"/><use transform="matrix(0.049382716049382706,0,0,0.049382716049382706,40.34567901234567,0)" xlink:href="#R"/><use transform="matrix(0.049382716049382706,0,0,0.049382716049382706,52.19753086419752,0)" xlink:href="#bd"/><use transform="matrix(0.049382716049382706,0,0,0.049382716049382706,64.98765432098764,0)" xlink:href="#S"/><use transform="matrix(0.049382716049382706,0,0,0.049382716049382706,74.86419753086419,0)" xlink:href="#be"/></g><g id="z"><use transform="matrix(0.04938271604938272,0,0,0.04938271604938272,0,0)" xlink:href="#aq"/><use transform="matrix(0.04938271604938272,0,0,0.04938271604938272,10.814814814814815,0)" xlink:href="#ar"/><use transform="matrix(0.04938271604938272,0,0,0.04938271604938272,15.753086419753087,0)" xlink:href="#as"/><use transform="matrix(0.04938271604938272,0,0,0.04938271604938272,26.567901234567902,0)" xlink:href="#at"/><use transform="matrix(0.04938271604938272,0,0,0.04938271604938272,36.44444444444444,0)" xlink:href="#au"/><use transform="matrix(0.04938271604938272,0,0,0.04938271604938272,42.32098765432099,0)" xlink:href="#av"/><use transform="matrix(0.04938271604938272,0,0,0.04938271604938272,51.802469135802475,0)" xlink:href="#aw"/><use transform="matrix(0.04938271604938272,0,0,0.04938271604938272,62.61728395061729,0)" xlink:href="#as"/><use transform="matrix(0.04938271604938272,0,0,0.04938271604938272,73.4320987654321,0)" xlink:href="#at"/><use transform="matrix(0.04938271604938272,0,0,0.04938271604938272,83.30864197530865,0)" xlink:href="#ax"/><use transform="matrix(0.04938271604938272,0,0,0.04938271604938272,90.22222222222223,0)" xlink:href="#ax"/></g><path fill="#3a414a" d="M185-189c-5-48-123-54-124 2 14 75 158 14 163 119 3 78-121 87-175 55-17-10-28-26-33-46l33-7c5 56 141 63 141-1 0-78-155-14-162-118-5-82 145-84 179-34 5 7 8 16 11 25" id="bf"/><path fill="#3a414a" d="M100-194c63 0 86 42 84 106H49c0 40 14 67 53 68 26 1 43-12 49-29l28 8c-11 28-37 45-77 45C44 4 14-33 15-96c1-61 26-98 85-98zm52 81c6-60-76-77-97-28-3 7-6 17-6 28h103" id="bg"/><path fill="#3a414a" d="M24 0v-261h32V0H24" id="bh"/><path fill="#3a414a" d="M96-169c-40 0-48 33-48 73s9 75 48 75c24 0 41-14 43-38l32 2c-6 37-31 61-74 61-59 0-76-41-82-99-10-93 101-131 147-64 4 7 5 14 7 22l-32 3c-4-21-16-35-41-35" id="bi"/><path fill="#3a414a" d="M59-47c-2 24 18 29 38 22v24C64 9 27 4 27-40v-127H5v-23h24l9-43h21v43h35v23H59v120" id="bj"/><path fill="#3a414a" d="M85-194c31 0 48 13 60 33l-1-100h32l1 261h-30c-2-10 0-23-3-31C134-8 116 4 85 4 32 4 16-35 15-94c0-66 23-100 70-100zm9 24c-40 0-46 34-46 75 0 40 6 74 45 74 42 0 51-32 51-76 0-42-9-74-50-73" id="bk"/><g id="A"><use transform="matrix(0.049382716049382706,0,0,0.049382716049382706,0,0)" xlink:href="#bf"/><use transform="matrix(0.049382716049382706,0,0,0.049382716049382706,11.85185185185185,0)" xlink:href="#bg"/><use transform="matrix(0.049382716049382706,0,0,0.049382716049382706,21.728395061728392,0)" xlink:href="#bh"/><use transform="matrix(0.049382716049382706,0,0,0.049382716049382706,25.629629629629626,0)" xlink:href="#bg"/><use transform="matrix(0.049382716049382706,0,0,0.049382716049382706,35.50617283950616,0)" xlink:href="#bi"/><use transform="matrix(0.049382716049382706,0,0,0.049382716049382706,44.39506172839505,0)" xlink:href="#bj"/><use transform="matrix(0.049382716049382706,0,0,0.049382716049382706,49.33333333333332,0)" xlink:href="#bg"/><use transform="matrix(0.049382716049382706,0,0,0.049382716049382706,59.20987654320985,0)" xlink:href="#bk"/></g><path fill="#3a414a" d="M160-131c35 5 61 23 61 61C221 17 115-2 30 0v-248c76 3 177-17 177 60 0 33-19 50-47 57zm-97-11c50-1 110 9 110-42 0-47-63-36-110-37v79zm0 115c55-2 124 14 124-45 0-56-70-42-124-44v89" id="bl"/><path fill="#3a414a" d="M135-143c-3-34-86-38-87 0 15 53 115 12 119 90S17 21 10-45l28-5c4 36 97 45 98 0-10-56-113-15-118-90-4-57 82-63 122-42 12 7 21 19 24 35" id="bm"/><g id="B"><use transform="matrix(0.049382716049382706,0,0,0.049382716049382706,0,0)" xlink:href="#bl"/><use transform="matrix(0.049382716049382706,0,0,0.049382716049382706,11.85185185185185,0)" xlink:href="#bg"/><use transform="matrix(0.049382716049382706,0,0,0.049382716049382706,21.728395061728392,0)" xlink:href="#bm"/><use transform="matrix(0.049382716049382706,0,0,0.049382716049382706,30.617283950617278,0)" xlink:href="#bj"/></g><path fill="#3a414a" d="M30 0v-248h187v28H63v79h144v27H63v87h162V0H30" id="bn"/><path fill="#3a414a" d="M115-194c55 1 70 41 70 98S169 2 115 4C84 4 66-9 55-30l1 105H24l-1-265h31l2 30c10-21 28-34 59-34zm-8 174c40 0 45-34 45-75s-6-73-45-74c-42 0-51 32-51 76 0 43 10 73 51 73" id="bo"/><path fill="#3a414a" d="M100-194c62-1 85 37 85 99 1 63-27 99-86 99S16-35 15-95c0-66 28-99 85-99zM99-20c44 1 53-31 53-75 0-43-8-75-51-75s-53 32-53 75 10 74 51 75" id="bp"/><path fill="#3a414a" d="M106-169C34-169 62-67 57 0H25v-261h32l-1 103c12-21 28-36 61-36 89 0 53 116 60 194h-32v-121c2-32-8-49-39-48" id="bq"/><g id="C"><use transform="matrix(0.049382716049382706,0,0,0.049382716049382706,0,0)" xlink:href="#bn"/><use transform="matrix(0.049382716049382706,0,0,0.049382716049382706,11.85185185185185,0)" xlink:href="#bo"/><use transform="matrix(0.049382716049382706,0,0,0.049382716049382706,21.728395061728392,0)" xlink:href="#bp"/><use transform="matrix(0.049382716049382706,0,0,0.049382716049382706,31.604938271604933,0)" xlink:href="#bi"/><use transform="matrix(0.049382716049382706,0,0,0.049382716049382706,40.49382716049382,0)" xlink:href="#bq"/></g><path fill="#3a414a" d="M115-194c53 0 69 39 70 98 0 66-23 100-70 100C84 3 66-7 56-30L54 0H23l1-261h32v101c10-23 28-34 59-34zm-8 174c40 0 45-34 45-75 0-40-5-75-45-74-42 0-51 32-51 76 0 43 10 73 51 73" id="br"/><path fill="#3a414a" d="M179-190L93 31C79 59 56 82 12 73V49c39 6 53-20 64-50L1-190h34L92-34l54-156h33" id="bs"/><g id="D"><use transform="matrix(0.049382716049382706,0,0,0.049382716049382706,0,0)" xlink:href="#br"/><use transform="matrix(0.049382716049382706,0,0,0.049382716049382706,9.87654320987654,0)" xlink:href="#bs"/></g><g id="E"><use transform="matrix(0.049382716049382706,0,0,0.049382716049382706,0,0)" xlink:href="#bj"/><use transform="matrix(0.049382716049382706,0,0,0.049382716049382706,4.93827160493827,0)" xlink:href="#bg"/><use transform="matrix(0.049382716049382706,0,0,0.049382716049382706,14.814814814814811,0)" xlink:href="#bm"/><use transform="matrix(0.049382716049382706,0,0,0.049382716049382706,23.7037037037037,0)" xlink:href="#bj"/></g><path fill="#3a414a" d="M63-220v92h138v28H63V0H30v-248h175v28H63" id="bt"/><path fill="#3a414a" d="M27 0v-27h64v-190l-56 39v-29l58-41h29v221h61V0H27" id="bu"/><path fill="#3a414a" d="M33-154v-36h34v36H33zM33 0v-36h34V0H33" id="bv"/><g id="F"><use transform="matrix(0.049382716049382706,0,0,0.049382716049382706,0,0)" xlink:href="#bt"/><use transform="matrix(0.049382716049382706,0,0,0.049382716049382706,10.814814814814813,0)" xlink:href="#bu"/><use transform="matrix(0.049382716049382706,0,0,0.049382716049382706,20.691358024691354,0)" xlink:href="#bv"/></g><g id="G"><use transform="matrix(0.049382716049382706,0,0,0.049382716049382706,0,0)" xlink:href="#bn"/><use transform="matrix(0.049382716049382706,0,0,0.049382716049382706,11.85185185185185,0)" xlink:href="#bo"/><use transform="matrix(0.049382716049382706,0,0,0.049382716049382706,21.728395061728392,0)" xlink:href="#bp"/><use transform="matrix(0.049382716049382706,0,0,0.049382716049382706,31.604938271604933,0)" xlink:href="#bi"/><use transform="matrix(0.049382716049382706,0,0,0.049382716049382706,40.49382716049382,0)" xlink:href="#bq"/></g><path fill="#3a414a" d="M101-251c68 0 85 55 85 127S166 4 100 4C33 4 14-52 14-124c0-73 17-127 87-127zm-1 229c47 0 54-49 54-102s-4-102-53-102c-51 0-55 48-55 102 0 53 5 102 54 102" id="bw"/><path fill="#3a414a" d="M64 0c3-98 48-159 88-221H18v-27h164v26C143-157 98-101 97 0H64" id="bx"/><g id="H"><use transform="matrix(0.049382716049382706,0,0,0.049382716049382706,0,0)" xlink:href="#bw"/><use transform="matrix(0.049382716049382706,0,0,0.049382716049382706,9.87654320987654,0)" xlink:href="#bx"/></g></defs></g></svg>